HIERARCHY
ROOT Hips
{
	OFFSET 0.000000 71.427986 0.000000
	CHANNELS 6 Xposition Yposition Zposition Xrotation Yrotation Zrotation
	JOINT Pelvis
	{
		OFFSET 0.000000 0.000000 0.000000
		CHANNELS 3 Xrotation Yrotation Zrotation
		JOINT LeftUpLeg
		{
			OFFSET 6.797100 -2.508499 -1.318700
			CHANNELS 3 Xrotation Yrotation Zrotation
			JOINT LeftLeg
			{
				OFFSET 0.069008 -29.241863 0.690200
				CHANNELS 3 Xrotation Yrotation Zrotation
				JOINT LeftFoot
				{
					OFFSET -0.069008 -29.568123 -0.266800
					CHANNELS 3 Xrotation Yrotation Zrotation
					JOINT LeftToeBase
					{
						OFFSET 3.145500 -8.631000 16.059900
						CHANNELS 3 Xrotation Yrotation Zrotation
						End Site
						{
							OFFSET 0.000000 18.501587 0.000000
						}
					}
				}
			}
			JOINT Left_ShortSleeve
			{
				OFFSET 0.265923 -10.480953 1.153800
				CHANNELS 3 Xrotation Yrotation Zrotation
				End Site
				{
					OFFSET 1.725763 19.823879 0.000000
				}
			}
		}
		JOINT RightUpLeg
		{
			OFFSET -6.797100 -2.508499 -1.318700
			CHANNELS 3 Xrotation Yrotation Zrotation
			JOINT RightLeg
			{
				OFFSET -0.082453 -29.241932 0.688000
				CHANNELS 3 Xrotation Yrotation Zrotation
				JOINT RightFoot
				{
					OFFSET 0.082453 -29.568058 -0.264600
					CHANNELS 3 Xrotation Yrotation Zrotation
					JOINT RightToeBase
					{
						OFFSET -3.115300 -8.682800 16.113400
						CHANNELS 3 Xrotation Yrotation Zrotation
						End Site
						{
							OFFSET 0.000000 18.567114 0.000000
						}
					}
				}
			}
			JOINT Right_ShortSleeve
			{
				OFFSET -0.265923 -10.480953 1.153800
				CHANNELS 3 Xrotation Yrotation Zrotation
				End Site
				{
					OFFSET -1.725766 19.823910 0.000000
				}
			}
		}
	}
	JOINT Spine
	{
		OFFSET 0.000000 13.368103 0.470500
		CHANNELS 3 Xrotation Yrotation Zrotation
		JOINT Spine1
		{
			OFFSET 0.147000 13.837402 0.538800
			CHANNELS 3 Xrotation Yrotation Zrotation
			JOINT Spine2
			{
				OFFSET 0.168000 16.242897 -1.435500
				CHANNELS 3 Xrotation Yrotation Zrotation
				JOINT Neck
				{
					OFFSET 0.217200 18.631500 -1.679100
					CHANNELS 3 Xrotation Yrotation Zrotation
					JOINT Head
					{
						OFFSET 0.000000 6.599396 1.385900
						CHANNELS 3 Xrotation Yrotation Zrotation
						JOINT Hat
						{
							OFFSET -0.532200 27.220596 -10.096100
							CHANNELS 3 Xrotation Yrotation Zrotation
							End Site
							{
								OFFSET 0.000000 22.029861 0.000000
							}
						}
						JOINT HairD
						{
							OFFSET -10.777400 17.437393 -1.325900
							CHANNELS 3 Xrotation Yrotation Zrotation
							JOINT HairD1
							{
								OFFSET -3.290299 -11.051193 1.062200
								CHANNELS 3 Xrotation Yrotation Zrotation
								End Site
								{
									OFFSET 0.000000 11.579437 0.000000
								}
							}
						}
						JOINT HairB
						{
							OFFSET -10.777400 17.437393 1.467900
							CHANNELS 3 Xrotation Yrotation Zrotation
							JOINT HairB1
							{
								OFFSET -1.561200 -12.956299 3.590200
								CHANNELS 3 Xrotation Yrotation Zrotation
								End Site
								{
									OFFSET 0.000000 13.534866 0.000000
								}
							}
						}
						JOINT HairA
						{
							OFFSET 9.713100 17.437393 1.467900
							CHANNELS 3 Xrotation Yrotation Zrotation
							JOINT HairA1
							{
								OFFSET 1.561200 -12.956299 3.590200
								CHANNELS 3 Xrotation Yrotation Zrotation
								End Site
								{
									OFFSET 0.000000 13.534866 0.000000
								}
							}
						}
						JOINT HairC
						{
							OFFSET 9.713100 17.437393 -1.325900
							CHANNELS 3 Xrotation Yrotation Zrotation
							JOINT HairC1
							{
								OFFSET 3.290300 -11.051193 1.062200
								CHANNELS 3 Xrotation Yrotation Zrotation
								End Site
								{
									OFFSET 0.000000 11.579437 0.000000
								}
							}
						}
					}
				}
				JOINT LeftShoulder
				{
					OFFSET 5.101800 15.108002 -2.763700
					CHANNELS 3 Xrotation Yrotation Zrotation
					JOINT LeftArm
					{
						OFFSET 9.825497 2.506317 -1.597400
						CHANNELS 3 Xrotation Yrotation Zrotation
						JOINT LeftForeArm
						{
							OFFSET 21.966244 0.000000 0.000000
							CHANNELS 3 Xrotation Yrotation Zrotation
							JOINT LeftHand
							{
								OFFSET 33.879036 0.000000 0.000000
								CHANNELS 3 Xrotation Yrotation Zrotation
								JOINT LeftHandThumb1
								{
									OFFSET 6.715286 -2.359680 3.363841
									CHANNELS 3 Xrotation Yrotation Zrotation
									JOINT LeftHandThumb2
									{
										OFFSET 2.507072 -1.447464 1.447461
										CHANNELS 3 Xrotation Yrotation Zrotation
										JOINT LeftHandThumb3
										{
											OFFSET 2.898338 -1.673355 1.673357
											CHANNELS 3 Xrotation Yrotation Zrotation
											End Site
											{
												OFFSET -0.295959 3.727692 -0.131651
											}
										}
									}
								}
								JOINT LeftHandIndex1
								{
									OFFSET 14.190811 -0.254547 3.840278
									CHANNELS 3 Xrotation Yrotation Zrotation
									JOINT LeftHandIndex2
									{
										OFFSET 3.551727 0.000000 -0.000000
										CHANNELS 3 Xrotation Yrotation Zrotation
										JOINT LeftHandIndex3
										{
											OFFSET 2.894196 0.000000 0.000000
											CHANNELS 3 Xrotation Yrotation Zrotation
											End Site
											{
												OFFSET -1.000603 2.690872 0.366626
											}
										}
									}
								}
								JOINT LeftHandMiddle1
								{
									OFFSET 13.776489 0.000000 0.000000
									CHANNELS 3 Xrotation Yrotation Zrotation
									JOINT LeftHandMiddle2
									{
										OFFSET 3.438232 0.000000 0.000000
										CHANNELS 3 Xrotation Yrotation Zrotation
										JOINT LeftHandMiddle3
										{
											OFFSET 3.691551 0.000000 0.000000
											CHANNELS 3 Xrotation Yrotation Zrotation
											End Site
											{
												OFFSET -1.082298 3.499527 0.457670
											}
										}
									}
								}
								JOINT LeftHandRing1
								{
									OFFSET 13.966164 -0.268127 -3.067488
									CHANNELS 3 Xrotation Yrotation Zrotation
									JOINT LeftHandRing2
									{
										OFFSET 3.162567 0.000000 0.000000
										CHANNELS 3 Xrotation Yrotation Zrotation
										JOINT LeftHandRing3
										{
											OFFSET 3.324348 0.000000 0.000000
											CHANNELS 3 Xrotation Yrotation Zrotation
											End Site
											{
												OFFSET -0.861900 3.184998 0.405154
											}
										}
									}
								}
								JOINT LeftHandPinky1
								{
									OFFSET 13.131393 -0.168503 -5.746925
									CHANNELS 3 Xrotation Yrotation Zrotation
									JOINT LeftHandPinky2
									{
										OFFSET 2.849182 0.000000 0.000000
										CHANNELS 3 Xrotation Yrotation Zrotation
										JOINT LeftHandPinky3
										{
											OFFSET 2.805038 0.000000 0.000000
											CHANNELS 3 Xrotation Yrotation Zrotation
											End Site
											{
												OFFSET -0.882500 2.642609 0.325652
											}
										}
									}
								}
							}
							JOINT Left_Sleeve
							{
								OFFSET 6.592125 -0.646545 0.805568
								CHANNELS 3 Xrotation Yrotation Zrotation
								End Site
								{
									OFFSET -0.000179 20.275787 -0.000000
								}
							}
						}
					}
				}
				JOINT RightShoulder
				{
					OFFSET -5.731700 15.108002 -2.763700
					CHANNELS 3 Xrotation Yrotation Zrotation
					JOINT RightArm
					{
						OFFSET -9.825497 2.506317 -1.597400
						CHANNELS 3 Xrotation Yrotation Zrotation
						JOINT RightForeArm
						{
							OFFSET -21.966242 0.000000 0.000000
							CHANNELS 3 Xrotation Yrotation Zrotation
							JOINT RightHand
							{
								OFFSET -33.879032 0.000000 0.000000
								CHANNELS 3 Xrotation Yrotation Zrotation
								JOINT RightHandThumb1
								{
									OFFSET -6.715286 -2.359680 3.363841
									CHANNELS 3 Xrotation Yrotation Zrotation
									JOINT RightHandThumb2
									{
										OFFSET -2.507072 -1.447464 1.447461
										CHANNELS 3 Xrotation Yrotation Zrotation
										JOINT RightHandThumb3
										{
											OFFSET -2.898338 -1.673355 1.673357
											CHANNELS 3 Xrotation Yrotation Zrotation
											End Site
											{
												OFFSET 0.295959 3.727692 -0.131651
											}
										}
									}
								}
								JOINT RightHandIndex1
								{
									OFFSET -14.190811 -0.254547 3.840278
									CHANNELS 3 Xrotation Yrotation Zrotation
									JOINT RightHandIndex2
									{
										OFFSET -3.551727 0.000000 -0.000000
										CHANNELS 3 Xrotation Yrotation Zrotation
										JOINT RightHandIndex3
										{
											OFFSET -2.894196 0.000000 0.000000
											CHANNELS 3 Xrotation Yrotation Zrotation
											End Site
											{
												OFFSET 1.000603 2.690872 0.366626
											}
										}
									}
								}
								JOINT RightHandMiddle1
								{
									OFFSET -13.776489 0.000000 0.000000
									CHANNELS 3 Xrotation Yrotation Zrotation
									JOINT RightHandMiddle2
									{
										OFFSET -3.438232 0.000000 0.000000
										CHANNELS 3 Xrotation Yrotation Zrotation
										JOINT RightHandMiddle3
										{
											OFFSET -3.691551 0.000000 0.000000
											CHANNELS 3 Xrotation Yrotation Zrotation
											End Site
											{
												OFFSET 1.082298 3.499527 0.457670
											}
										}
									}
								}
								JOINT RightHandRing1
								{
									OFFSET -13.966164 -0.268127 -3.067488
									CHANNELS 3 Xrotation Yrotation Zrotation
									JOINT RightHandRing2
									{
										OFFSET -3.162567 0.000000 0.000000
										CHANNELS 3 Xrotation Yrotation Zrotation
										JOINT RightHandRing3
										{
											OFFSET -3.324348 0.000000 0.000000
											CHANNELS 3 Xrotation Yrotation Zrotation
											End Site
											{
												OFFSET 0.861900 3.184998 0.405154
											}
										}
									}
								}
								JOINT RightHandPinky1
								{
									OFFSET -13.131393 -0.168503 -5.746925
									CHANNELS 3 Xrotation Yrotation Zrotation
									JOINT RightHandPinky2
									{
										OFFSET -2.849182 0.000000 0.000000
										CHANNELS 3 Xrotation Yrotation Zrotation
										JOINT RightHandPinky3
										{
											OFFSET -2.805038 0.000000 0.000000
											CHANNELS 3 Xrotation Yrotation Zrotation
											End Site
											{
												OFFSET 0.882500 2.642609 0.325652
											}
										}
									}
								}
							}
							JOINT Right_Sleeve
							{
								OFFSET -6.592125 -0.646545 0.805568
								CHANNELS 3 Xrotation Yrotation Zrotation
								End Site
								{
									OFFSET 0.000179 20.275787 -0.000000
								}
							}
						}
					}
				}
				JOINT Bind_Right_JacketString
				{
					OFFSET -3.534800 11.969597 7.200700
					CHANNELS 3 Xrotation Yrotation Zrotation
					JOINT Bind_Right_JacketString1
					{
						OFFSET -0.319900 -6.102600 2.794100
						CHANNELS 3 Xrotation Yrotation Zrotation
						End Site
						{
							OFFSET 0.000000 6.719452 0.000000
						}
					}
				}
				JOINT Bind_Left_JacketString
				{
					OFFSET 2.904800 11.969597 7.200700
					CHANNELS 3 Xrotation Yrotation Zrotation
					JOINT Bind_Left_JacketString1
					{
						OFFSET 0.364800 -5.904503 3.186800
						CHANNELS 3 Xrotation Yrotation Zrotation
						End Site
						{
							OFFSET 0.000000 6.719513 0.000000
						}
					}
				}
				JOINT HairE
				{
					OFFSET 5.915200 17.612701 -11.592200
					CHANNELS 3 Xrotation Yrotation Zrotation
					JOINT HairE1
					{
						OFFSET 0.289200 -7.171898 -1.284500
						CHANNELS 3 Xrotation Yrotation Zrotation
						End Site
						{
							OFFSET 0.000000 7.291756 0.000000
						}
					}
				}
				JOINT HairF
				{
					OFFSET -0.864800 17.612701 -11.592200
					CHANNELS 3 Xrotation Yrotation Zrotation
					JOINT HairF1
					{
						OFFSET 0.000000 -14.087097 -2.127501
						CHANNELS 3 Xrotation Yrotation Zrotation
						End Site
						{
							OFFSET 0.000000 14.246841 0.000000
						}
					}
				}
				JOINT HairG
				{
					OFFSET -8.087700 17.612701 -11.592200
					CHANNELS 3 Xrotation Yrotation Zrotation
					JOINT HairG1
					{
						OFFSET -0.293600 -6.081398 -0.910100
						CHANNELS 3 Xrotation Yrotation Zrotation
						End Site
						{
							OFFSET 0.000000 6.156120 0.000000
						}
					}
				}
			}
		}
	}
	JOINT Pouch
	{
		OFFSET 0.000000 4.394501 10.847300
		CHANNELS 3 Xrotation Yrotation Zrotation
		End Site
		{
			OFFSET 0.000000 21.880577 0.000000
		}
	}
	JOINT Bag
	{
		OFFSET -13.229000 4.813004 -0.593300
		CHANNELS 3 Xrotation Yrotation Zrotation
		End Site
		{
			OFFSET 0.000000 21.880577 0.000000
		}
	}
	JOINT OccupyGuyFacialAnim_Joint
	{
		OFFSET 1.000000 -70.206398 -1.655000
		CHANNELS 3 Xrotation Yrotation Zrotation
		End Site
		{
			OFFSET 0.000000 21.880577 0.000000
		}
	}
}
MOTION
Frames: 4
Frame Time: 0.033333
-1.377423 71.140869 -2.229500 -176.900971 -171.853761 178.974384 0.000000 -0.000001 -0.000000 -16.283572 -4.386046 0.725317 31.515886 8.499552 -1.038227 -9.093047 18.203947 -4.632904 -0.000000 0.000000 -0.000000 -0.000001 0.000001 0.000000 -6.608979 -0.143054 -0.049580 10.517676 5.738937 2.832547 -6.900831 -8.966220 -0.420467 0.000000 0.000001 -0.000000 0.000000 -0.000001 -0.000000 2.568962 -0.486644 0.424587 0.472660 -0.673935 0.334580 0.473781 -0.658943 0.335130 7.200502 0.049447 -0.217389 5.957658 -0.970856 -1.502620 0.000001 0.000000 0.000000 0.000001 0.000000 0.000000 0.000001 0.000000 0.000000 0.000001 0.000000 0.000000 -0.000000 0.000000 -0.000000 0.000001 0.000000 0.000000 -0.000000 0.000000 -0.000000 0.000001 0.000000 0.000000 0.000001 0.000000 0.000000 0.825964 -11.539232 -6.471811 -18.522375 0.137594 -40.912744 -0.000016 -70.769735 -0.000021 -40.857621 -14.088697 18.641179 4.573067 0.276271 -1.673091 8.368205 26.692014 1.847544 -0.000001 0.000001 -0.000001 1.296973 6.708715 -66.026646 4.811685 5.758302 -79.750423 0.000000 0.000000 0.000003 3.693225 7.763023 -67.055123 4.909874 5.775102 -80.727522 0.000001 0.000001 -0.000004 5.068401 8.238961 -71.181165 5.354601 5.830042 -85.124279 -0.000001 0.000001 -0.000004 3.223100 15.507528 -71.019009 5.548344 5.843273 -87.029137 0.000001 0.000000 0.000003 0.000000 0.000001 0.000001 1.330314 6.987152 11.474165 -37.999163 -12.967208 37.549662 0.000075 73.044837 -0.000082 -46.723255 29.912066 -3.374078 -4.547916 3.328527 -4.737169 7.868796 -27.318110 -3.073281 0.000001 -0.000002 0.000005 0.083920 -3.789094 34.688000 1.820084 -3.694764 52.439051 0.000002 0.000000 -0.000001 2.249001 -6.524778 41.509713 2.258726 -3.993232 58.974661 0.000005 -0.000002 0.000002 3.117048 -7.227453 45.677563 2.559078 -4.158736 63.198368 0.000002 -0.000001 -0.000000 4.700620 -8.973691 51.503151 3.002666 -4.353969 69.169537 -0.000002 0.000002 -0.000001 0.000001 0.000003 0.000005 0.000000 -0.000000 0.000000 0.000000 -0.000000 0.000000 0.000000 -0.000000 -0.000000 0.000000 -0.000000 -0.000000 0.000000 -0.000000 0.000000 0.000000 -0.000000 0.000000 0.000000 -0.000000 -0.000000 0.000000 -0.000000 -0.000000 0.000000 -0.000000 0.000000 0.000000 -0.000000 0.000000 0.000000 -0.000001 -0.000000 0.000000 -0.000001 -0.000000 0.000000 -0.000001 -0.000000 
-1.197305 71.125542 -1.987044 -177.845354 -172.339716 178.653870 -0.000000 0.000001 -0.000000 -15.189533 -4.097821 0.773673 31.644434 7.796851 -1.021645 -9.666849 18.212498 -4.213022 0.000001 0.000001 -0.000000 0.000000 -0.000000 -0.000000 -5.061718 -0.290072 -0.041663 10.014989 5.437321 2.744135 -7.208939 -9.120254 0.006344 0.000000 0.000001 0.000000 -0.000000 0.000000 -0.000000 2.096954 -0.379274 0.189586 0.059046 -0.609566 0.246625 0.059522 -0.595725 0.245481 7.866427 -0.019191 -0.456652 7.807914 -1.555528 -1.169475 0.000002 0.000000 -0.000000 0.000002 0.000000 -0.000000 0.000002 0.000000 0.000000 0.000002 0.000000 0.000000 0.000002 0.000001 -0.000001 0.000002 0.000000 0.000000 0.000002 0.000001 -0.000001 0.000002 0.000000 -0.000000 0.000002 0.000000 -0.000000 0.872554 -11.584361 -5.639137 -23.247536 -2.548726 -40.647999 -0.000136 -76.861936 -0.000175 -41.029489 -15.258252 19.221790 4.573052 0.276256 -1.673091 8.368212 26.692024 1.847528 -0.000000 0.000001 0.000002 1.296983 6.708704 -66.026660 4.811679 5.758306 -79.750429 0.000002 0.000001 -0.000000 3.693225 7.763020 -67.055129 4.909874 5.775129 -80.727502 0.000003 0.000001 -0.000008 5.068391 8.238976 -71.181165 5.354631 5.830038 -85.124292 -0.000001 0.000000 0.000002 3.223081 15.507502 -71.019002 5.548342 5.843259 -87.029123 -0.000000 -0.000001 0.000001 0.000004 0.000000 -0.000000 1.282402 6.982060 10.619036 -41.282329 -12.140368 38.449785 0.000111 79.696901 -0.000147 -47.678583 31.906696 -2.393755 -4.486952 3.579289 -4.645792 7.818626 -26.878738 -3.045080 -0.000000 0.000001 -0.000003 -0.034337 -3.561878 33.540740 1.737149 -3.629606 51.140457 -0.000006 0.000003 0.000001 2.141539 -6.444441 40.455893 2.158338 -3.931236 57.521627 -0.000001 0.000000 -0.000002 3.195399 -7.375517 44.499960 2.449676 -4.101778 61.679463 0.000000 -0.000001 -0.000001 4.837791 -9.154322 50.497979 2.876457 -4.303984 67.497808 0.000002 0.000001 -0.000001 -0.000003 0.000001 0.000004 -0.000000 0.000000 0.000000 0.000000 -0.000001 0.000000 -0.000000 0.000000 -0.000000 -0.000000 0.000000 -0.000000 -0.000000 0.000000 0.000000 0.000000 -0.000001 0.000000 -0.000000 0.000000 -0.000000 -0.000000 0.000000 -0.000000 -0.000000 0.000000 0.000000 0.000000 -0.000001 0.000000 -0.000000 0.000001 -0.000000 -0.000000 0.000001 -0.000000 -0.000000 0.000001 -0.000000 
-1.030908 71.090637 -1.729307 -178.823819 -172.920924 178.423461 -0.000000 -0.000000 -0.000000 -14.041124 -3.797115 0.763215 31.764184 7.006786 -1.011543 -10.295732 18.221673 -3.760813 0.000000 -0.000001 0.000000 0.000000 0.000001 0.000000 -3.688595 -0.501669 -0.135505 10.014943 5.165149 2.675358 -7.858506 -9.290679 0.526806 0.000000 0.000001 0.000000 -0.000000 0.000000 -0.000000 1.645466 -0.230662 -0.006294 -0.336874 -0.515807 0.181759 -0.337328 -0.502507 0.178538 8.473748 -0.140804 -0.646595 9.690219 -2.288964 -0.949433 0.000002 0.000001 -0.000000 0.000002 0.000001 -0.000000 0.000002 0.000001 0.000000 0.000002 0.000001 0.000000 -0.000001 0.000001 -0.000000 0.000002 0.000001 0.000000 -0.000001 0.000001 -0.000000 0.000002 0.000001 -0.000000 0.000002 0.000001 -0.000000 0.893180 -11.816116 -4.997353 -27.695188 -6.090635 -41.238647 -0.000135 -81.811412 -0.000144 -40.523345 -15.881599 18.127189 4.573055 0.276246 -1.673073 8.368198 26.692033 1.847552 -0.000000 0.000001 0.000000 1.296969 6.708715 -66.026633 4.811703 5.758288 -79.750429 0.000001 -0.000001 -0.000004 3.693222 7.763008 -67.055129 4.909884 5.775109 -80.727529 0.000002 -0.000000 -0.000003 5.068400 8.238951 -71.181172 5.354613 5.830025 -85.124265 -0.000002 0.000001 -0.000002 3.223087 15.507504 -71.018996 5.548354 5.843253 -87.029123 -0.000000 -0.000001 -0.000003 -0.000003 0.000001 0.000001 1.248336 6.971168 9.608515 -43.801849 -11.069379 39.971541 0.001525 85.898973 -0.001524 -48.976852 33.092430 -0.842794 -4.402533 3.962934 -4.510374 7.740784 -26.197858 -3.000768 -0.000000 0.000003 0.000004 -0.204055 -3.198893 31.744185 1.611324 -3.524724 49.123991 -0.000001 -0.000003 0.000003 1.977617 -6.313712 38.803821 2.005533 -3.829946 55.264314 -0.000001 -0.000000 0.000003 3.302751 -7.616211 42.653107 2.282758 -4.007576 59.319175 0.000003 0.000001 0.000000 5.037016 -9.449256 48.920776 2.683317 -4.219037 64.899044 -0.000001 0.000000 0.000002 0.000001 -0.000002 0.000000 0.000000 -0.000000 0.000000 0.000000 0.000000 -0.000000 0.000000 -0.000000 -0.000000 0.000000 -0.000000 -0.000000 0.000000 -0.000000 0.000000 0.000000 0.000000 -0.000000 0.000000 -0.000000 -0.000000 0.000000 -0.000000 -0.000000 0.000000 -0.000000 0.000000 0.000000 0.000000 -0.000000 -0.000000 -0.000000 -0.000000 -0.000000 -0.000000 -0.000000 -0.000000 -0.000000 -0.000000 
-0.890345 71.074036 -1.449562 -179.805618 -173.607754 178.310927 -0.000000 0.000000 0.000000 -12.721958 -3.475698 0.704214 31.590028 6.098012 -1.019593 -10.850763 18.228110 -3.254289 -0.000000 -0.000000 0.000000 -0.000000 -0.000000 -0.000000 -2.688190 -0.779173 -0.253746 10.792354 4.853026 2.592470 -8.739143 -9.445989 0.694983 -0.000000 -0.000001 -0.000000 0.000000 -0.000000 -0.000000 1.198933 -0.061400 -0.152335 -0.723326 -0.406777 0.146777 -0.724933 -0.393604 0.141377 8.988514 -0.299051 -0.750601 11.459100 -3.073728 -0.811977 -0.000001 -0.000001 0.000000 -0.000001 -0.000001 0.000000 -0.000001 -0.000001 0.000000 -0.000001 -0.000001 -0.000000 -0.000001 -0.000001 -0.000000 -0.000001 -0.000001 -0.000000 -0.000001 -0.000001 -0.000000 -0.000001 -0.000001 0.000000 -0.000001 -0.000001 0.000000 0.898867 -12.139468 -4.495483 -31.482159 -9.967208 -42.680879 0.001519 -85.911588 0.001505 -40.056973 -16.309459 15.764051 4.573055 0.276257 -1.673087 8.368218 26.692024 1.847533 0.000000 -0.000001 -0.000000 1.296978 6.708699 -66.026667 4.811674 5.758295 -79.750416 0.000006 -0.000003 -0.000002 3.693221 7.763014 -67.055150 4.909861 5.775132 -80.727488 0.000003 0.000001 0.000001 5.068394 8.238970 -71.181172 5.354619 5.830051 -85.124272 -0.000000 0.000002 -0.000001 3.223074 15.507536 -71.018982 5.548341 5.843244 -87.029116 0.000000 -0.000002 0.000001 -0.000003 -0.000001 0.000001 1.229058 6.946452 8.483512 -45.399014 -9.738901 41.921331 -0.087471 91.618778 0.087281 -49.674600 33.875081 0.824333 -4.308879 4.451350 -4.344694 7.639915 -25.317527 -2.942302 -0.000000 -0.000001 -0.000001 -0.397415 -2.711586 29.393323 1.453884 -3.382311 46.510880 0.000001 0.000000 -0.000001 1.771427 -6.133857 36.639262 1.813551 -3.689746 52.337335 0.000002 0.000000 -0.000002 3.414616 -7.946583 40.231337 2.072290 -3.875288 56.257867 -0.000001 0.000001 0.000000 5.268940 -9.856751 46.851666 2.438762 -4.095894 61.526822 0.000003 0.000002 -0.000003 -0.000001 0.000004 -0.000002 0.000000 0.000000 0.000000 0.000000 0.000000 0.000000 0.000000 0.000000 0.000000 0.000000 0.000000 0.000000 0.000000 0.000000 0.000000 0.000000 0.000000 0.000000 0.000000 0.000000 0.000000 0.000000 0.000000 0.000000 0.000000 0.000000 0.000000 0.000000 0.000000 0.000000 -0.000000 0.000000 0.000000 -0.000000 0.000000 0.000000 -0.000000 0.000000 0.000000 
